<?xml version="1.0" encoding="UTF-8"?><svg id="a" xmlns="http://www.w3.org/2000/svg" width="313.83" height="486.12" xmlns:xlink="http://www.w3.org/1999/xlink" viewBox="0 0 313.83 486.12"><defs><linearGradient id="b" x1="93.42" y1="124.89" x2="220.41" y2="124.89" gradientUnits="userSpaceOnUse"><stop offset="0" stop-color="#f4e5c4"/><stop offset="1" stop-color="#c8a679"/></linearGradient><linearGradient id="c" x1="149.19" y1="171.28" x2="144.56" y2="385.88" gradientUnits="userSpaceOnUse"><stop offset="0" stop-color="#adadad"/><stop offset="1" stop-color="#f0f1e9"/></linearGradient><linearGradient id="d" x1="145.31" y1="108.75" x2="168.52" y2="108.75" xlink:href="#b"/><linearGradient id="e" x1="150.93" y1="60.39" x2="162.47" y2="60.39" xlink:href="#b"/><linearGradient id="f" x1="146.5" y1="95.44" x2="166.58" y2="95.44" xlink:href="#b"/><linearGradient id="g" x1="148.72" y1="77.81" x2="164.52" y2="77.81" xlink:href="#b"/><linearGradient id="h" x1="278.38" y1="33.87" x2="287.58" y2="33.87" xlink:href="#b"/><linearGradient id="i" x1="270.53" y1="44.16" x2="284.24" y2="44.16" xlink:href="#b"/><linearGradient id="j" x1="262.66" y1="54.95" x2="279.56" y2="54.95" xlink:href="#b"/><linearGradient id="k" x1="212.67" y1="51.02" x2="227.27" y2="51.02" xlink:href="#b"/><linearGradient id="l" x1="295.01" y1="89.05" x2="309.6" y2="89.05" xlink:href="#b"/><linearGradient id="m" x1="230.35" y1="70.76" x2="290.4" y2="70.76" xlink:href="#b"/><linearGradient id="n" x1="266.51" y1="65.04" x2="274.9" y2="65.04" xlink:href="#b"/><linearGradient id="o" x1="278.38" y1="33.87" x2="287.58" y2="33.87" gradientTransform="translate(313.83) rotate(-180) scale(1 -1)" xlink:href="#b"/><linearGradient id="p" x1="270.53" y1="44.16" x2="284.24" y2="44.16" gradientTransform="translate(313.83) rotate(-180) scale(1 -1)" xlink:href="#b"/><linearGradient id="q" x1="262.66" y1="54.95" x2="279.56" y2="54.95" gradientTransform="translate(313.83) rotate(-180) scale(1 -1)" xlink:href="#b"/><linearGradient id="r" x1="212.67" y1="51.02" x2="227.27" y2="51.02" gradientTransform="translate(313.83) rotate(-180) scale(1 -1)" xlink:href="#b"/><linearGradient id="s" x1="295.01" y1="89.05" x2="309.6" y2="89.05" gradientTransform="translate(313.83) rotate(-180) scale(1 -1)" xlink:href="#b"/><linearGradient id="t" x1="230.35" y1="70.76" x2="290.4" y2="70.76" gradientTransform="translate(313.83) rotate(-180) scale(1 -1)" xlink:href="#b"/><linearGradient id="u" x1="266.51" y1="65.04" x2="274.9" y2="65.04" gradientTransform="translate(313.83) rotate(-180) scale(1 -1)" xlink:href="#b"/></defs><circle cx="199.98" cy="156.75" r="5.11" fill="#161616" stroke-width="0"/><circle cx="113.85" cy="156.75" r="5.11" fill="#161616" stroke-width="0"/><circle cx="199.98" cy="73.67" r="5.11" fill="#161616" stroke-width="0"/><circle cx="113.85" cy="73.67" r="5.11" fill="#161616" stroke-width="0"/><circle cx="199.98" cy="321.27" r="5.11" fill="#161616" stroke-width="0"/><circle cx="113.85" cy="321.27" r="5.11" fill="#161616" stroke-width="0"/><circle cx="199.98" cy="346.93" r="5.11" fill="#161616" stroke-width="0"/><circle cx="113.85" cy="346.93" r="5.11" fill="#161616" stroke-width="0"/><path d="M293.83,138.2v145.01c0,9.43-3.37,18.52-9.5,25.57l-127.42,146.82L29.5,308.78c-6.13-7.05-9.5-16.14-9.5-25.57v-145.01c20.85-2.17,41.77-3.81,62.71-4.98l2.8,7.86c-19.25,1.04-38.45,2.48-57.51,4.36v137.77c0,7.51,2.68,14.73,7.54,20.33l121.37,139.86,121.38-139.86c4.86-5.6,7.54-12.82,7.54-20.33v-137.77c-19.06-1.88-38.26-3.32-57.51-4.36l2.8-7.86c20.94,1.17,41.86,2.81,62.71,4.98Z" fill="#161616" stroke-width="0"/><path d="M268.22,193.36l-30.72-36.15-6.09-7.17-6.1,7.17-30.72,36.15-1.9,2.25v78.18l1.9,2.24,30.72,36.15,6.1,7.18,6.09-7.18,30.72-36.15,1.91-2.24v-78.18l-1.91-2.25ZM235.41,167.1l24.07,28.33-10.58,5.83-11.21-14.21-2.28-2.9v-17.05ZM227.41,167.1v17.05l-2.28,2.9-11.21,14.21-10.59-5.83,24.08-28.33ZM200.69,203.11l9.83,5.4v52.37l-9.83,5.41v-63.18ZM227.41,302.29l-24.08-28.33,10.59-5.82,11.21,14.21,2.28,2.89v17.05ZM218.52,261.05v-52.7l12.89-16.35,12.89,16.35v52.7l-12.89,16.35-12.89-16.35ZM235.41,302.29v-17.05l2.28-2.89,11.21-14.21,10.58,5.82-24.07,28.33ZM262.13,266.28l-9.83-5.4v-52.37l9.83-5.4v63.17Z" fill="#161616" stroke-width="0"/><polygon points="244.3 208.35 244.3 261.05 231.41 277.4 218.52 261.05 218.52 208.35 231.41 192 244.3 208.35" fill="#d8dcdb" stroke-width="0"/><polygon points="259.48 273.96 235.41 302.29 235.41 285.24 237.69 282.35 248.9 268.14 259.48 273.96" fill="#d9e3e5" stroke-width="0"/><polygon points="227.41 285.24 227.41 302.29 203.33 273.96 213.92 268.14 225.13 282.35 227.41 285.24" fill="#c9cfcd" stroke-width="0"/><polygon points="210.52 208.51 210.52 260.88 200.69 266.29 200.69 203.11 210.52 208.51" fill="#e6eaeb" stroke-width="0"/><polygon points="262.13 203.11 262.13 266.28 252.3 260.88 252.3 208.51 262.13 203.11" fill="#c0c8cb" stroke-width="0"/><polygon points="259.48 195.43 248.9 201.26 237.69 187.05 235.41 184.15 235.41 167.1 259.48 195.43" fill="#b7c0c5" stroke-width="0"/><polygon points="227.41 167.1 227.41 184.15 225.13 187.05 213.92 201.26 203.33 195.43 227.41 167.1" fill="#fafbf5" stroke-width="0"/><path d="M119.24,193.36l-30.72-36.15-6.1-7.17-6.09,7.17-30.72,36.15-1.9,2.25v78.18l1.9,2.24,30.72,36.15,6.09,7.18,6.1-7.18,30.72-36.15,1.9-2.24v-78.18l-1.9-2.25ZM86.42,167.1l24.08,28.33-10.59,5.83-11.21-14.21-2.28-2.9v-17.05ZM78.42,167.1v17.05l-2.28,2.9-11.2,14.21-10.59-5.83,24.07-28.33ZM51.71,203.11l9.82,5.4v52.37l-9.82,5.4v-63.17ZM78.42,302.29l-24.07-28.33,10.59-5.82,11.2,14.21,2.28,2.89v17.05ZM69.53,261.05v-52.7l12.89-16.35,12.89,16.35v52.7l-12.89,16.35-12.89-16.35ZM86.42,302.29v-17.05l2.28-2.89,11.21-14.21,10.59,5.82-24.08,28.33ZM113.14,266.29l-9.83-5.41v-52.37l9.83-5.4v63.18Z" fill="#161616" stroke-width="0"/><polygon points="95.31 208.35 95.31 261.05 82.42 277.4 69.53 261.05 69.53 208.35 82.42 192 95.31 208.35" fill="#d8dcdb" stroke-width="0"/><polygon points="110.5 273.96 86.42 302.29 86.42 285.24 88.7 282.35 99.91 268.14 110.5 273.96" fill="#d9e3e5" stroke-width="0"/><polygon points="78.42 285.24 78.42 302.29 54.35 273.96 64.94 268.14 76.14 282.35 78.42 285.24" fill="#c9cfcd" stroke-width="0"/><polygon points="61.53 208.51 61.53 260.88 51.71 266.28 51.71 203.11 61.53 208.51" fill="#e6eaeb" stroke-width="0"/><polygon points="113.14 203.11 113.14 266.29 103.31 260.88 103.31 208.51 113.14 203.11" fill="#c0c8cb" stroke-width="0"/><polygon points="110.5 195.43 99.91 201.26 88.7 187.05 86.42 184.15 86.42 167.1 110.5 195.43" fill="#b7c0c5" stroke-width="0"/><polygon points="78.42 167.1 78.42 184.15 76.14 187.05 64.94 201.26 54.35 195.43 78.42 167.1" fill="#fafbf5" stroke-width="0"/><path d="M220.36,121.8l-2.6,7.31h-121.69l-2.6-7.31c-.2-.55.21-1.12.8-1.12h125.29c.59,0,1,.57.8,1.12Z" fill="url(#b)" stroke-width="0"/><polygon points="172.7 137.17 172.7 144.82 172.21 145.62 160.91 164.07 160.91 398.92 156.92 407.08 152.91 398.89 152.91 164.07 141.13 144.83 141.13 137.17 145.82 137.17 156.92 155.28 168.01 137.17 172.7 137.17" fill="#fff" stroke-width="0"/><path d="M226.79,116.42c-1.65-2.34-4.35-3.74-7.23-3.74h-42.99l-1.36-11.35-.34-2.81-1.65-13.79-.82-6.78-1.18-9.85-.49-4.11-.26-2.17-.13-1.1-1.09-9.02c1.33-.85,2.59-1.86,3.75-3.02l4.2-4.2c8.88-8.88,8.88-23.29,0-32.17l-4.2-4.2c-8.88-8.88-23.29-8.88-32.17,0l-4.2,4.2c-8.88,8.88-8.88,23.29,0,32.17l4.2,4.2c1.16,1.16,2.42,2.17,3.75,3.02l-2.13,17.72-.91,7.64-1.32,10.99h0s-.66,5.49-.66,5.49h0s-2.3,19.14-2.3,19.14h-42.99c-2.87,0-5.58,1.4-7.23,3.74-1.66,2.35-2.07,5.36-1.11,8.07l2.6,7.3,1.89,5.32h42.71v239.57l.82,1.66,15.78,32.26,7.19,14.69,7.18-14.69,15.78-32.26.82-1.66v-239.57h42.71l1.89-5.32,2.6-7.3c.96-2.71.55-5.72-1.11-8.07ZM152.26,54.85c3.07.65,6.24.65,9.31,0l.9,7.54c-3.91.98-7.76,2.16-11.54,3.55l1.33-11.09ZM149.66,76.53l.13-1.09c4.67-1.1,9.26-2.49,13.75-4.16l.98,8.2c-5.38,1.24-10.66,2.87-15.8,4.86l.94-7.81ZM147.39,95.41l.23-1.92c6.12-1.3,12.12-3.12,17.94-5.41l1.02,8.53c-6.87,1.44-13.59,3.52-20.08,6.2l.89-7.4ZM145.45,111.52c7.59-1.48,15-3.72,22.13-6.69l.94,7.85h-23.21l.14-1.16ZM141.13,374.82v-229.99l11.78,19.24v234.82l-11.78-24.07ZM145.82,137.17h22.19l-11.09,18.11-11.1-18.11ZM172.7,374.82l-11.79,24.1v-234.85l11.3-18.45.49-.8v230ZM220.36,121.8l-2.6,7.31h-121.69l-2.6-7.31c-.2-.55.21-1.12.8-1.12h125.29c.59,0,1,.57.8,1.12Z" fill="#161616" stroke-width="0"/><polygon points="152.91 164.07 152.91 398.89 141.13 374.82 141.13 144.83 152.91 164.07" fill="url(#c)" stroke-width="0"/><polygon points="168.01 137.17 156.92 155.28 145.82 137.17 168.01 137.17" fill="#a2a7aa" stroke-width="0"/><path d="M168.52,112.68h-23.21l.14-1.16c7.59-1.48,15-3.72,22.13-6.69l.94,7.85Z" fill="url(#d)" stroke-width="0"/><path d="M162.47,62.39c-3.91.98-7.76,2.16-11.54,3.55l1.33-11.09c3.07.65,6.24.65,9.31,0l.9,7.54Z" fill="url(#e)" stroke-width="0"/><path d="M166.58,96.61c-6.87,1.44-13.59,3.52-20.08,6.2l.89-7.4.23-1.92c6.12-1.3,12.12-3.12,17.94-5.41l1.02,8.53Z" fill="url(#f)" stroke-width="0"/><path d="M164.52,79.48c-5.38,1.24-10.66,2.87-15.8,4.86l.94-7.81.13-1.09c4.67-1.1,9.26-2.49,13.75-4.16l.98,8.2Z" fill="url(#g)" stroke-width="0"/><path d="M154.41,13.07v4.12c-1.6.42-3.06,1.26-4.25,2.46l-2.02,2.01c-1.19,1.2-2.04,2.66-2.46,4.26h-4.1c.48-2.6,1.73-5.08,3.74-7.09l2.01-2.01c2-2.01,4.49-3.26,7.08-3.75Z" fill="#eff1ee" stroke-width="0"/><path d="M172.26,30.92c-.49,2.6-1.74,5.08-3.75,7.09l-2.01,2.01c-2.01,2-4.49,3.25-7.09,3.74v-4.1c1.6-.42,3.06-1.27,4.26-2.47l2.02-2.01c1.2-1.2,2.04-2.66,2.46-4.26h4.11Z" fill="#8f928b" stroke-width="0"/><path d="M154.41,39.65v4.11c-2.59-.49-5.08-1.74-7.08-3.74l-2.01-2.01c-2.01-2.01-3.26-4.49-3.74-7.09h4.1c.42,1.6,1.27,3.06,2.46,4.26l2.02,2.01c1.19,1.2,2.65,2.04,4.25,2.46Z" fill="#dccfbc" stroke-width="0"/><path d="M172.26,25.92h-4.11c-.42-1.6-1.26-3.06-2.46-4.26l-2.02-2.01c-1.2-1.2-2.66-2.05-4.26-2.47v-4.11c2.6.49,5.08,1.74,7.09,3.75l2.01,2.01c2.01,2.01,3.26,4.49,3.75,7.09Z" fill="#c0bcb1" stroke-width="0"/><rect x="152.28" y="23.78" width="9.27" height="9.27" transform="translate(66.05 -102.63) rotate(45)" fill="#e0d1bc" stroke-width="0"/><path d="M313.83,120.24v162.97c0,14.25-5.11,27.99-14.39,38.68l-136.48,157.26-6.05,6.97-6.04-6.97L14.39,321.89c-9.28-10.69-14.39-24.43-14.39-38.68V120.24l7.14-.77,5.35-.58c20.95-2.27,42.07-4.04,63.24-5.32l1.49,4.19,1.3,3.66c-21.77,1.27-43.51,3.08-65.17,5.42l-5.35.58v155.79c0,12.32,4.41,24.2,12.43,33.44l136.48,157.26,136.49-157.26c8.02-9.24,12.43-21.12,12.43-33.44V127.42l-5.35-.58c-21.66-2.34-43.4-4.15-65.17-5.42l1.29-3.65,1.5-4.2c21.17,1.28,42.29,3.05,63.24,5.32l5.35.58,7.14.77Z" fill="#161616" stroke-width="0"/><path d="M77.18,412.55l-13.19,22.61-15.28,12.6,23.57-40.86-5.85-6.74-25.89,44.89.84-20.81,18.46-31.67-4.69-5.41-20.07,34.45-.32.59-2.36,47.2,36.83-29.65,12.67-21.76-4.72-5.44Z" fill="#161616" stroke-width="0"/><polygon points="66.43 400.16 40.54 445.05 41.38 424.24 59.84 392.57 66.43 400.16" fill="#e8e8e8" stroke-width="0"/><polygon points="77.18 412.54 77.18 412.55 63.99 435.16 48.71 447.76 72.28 406.9 77.18 412.54" fill="#e8e8e8" stroke-width="0"/><path d="M287.58,34.74l-.87,2.03c-2.75-.77-5.52-1.41-8.33-1.88l2.92-3.92c1.81,1.67,3.94,2.96,6.28,3.77Z" fill="url(#h)" stroke-width="0"/><path d="M284.24,42.61l-2.29,5.38c-3.74-1.13-7.56-1.99-11.42-2.58l3.33-4.47.47-.63c3.26.97,6.57,1.74,9.91,2.29Z" fill="url(#i)" stroke-width="0"/><path d="M279.56,53.65l-2.38,5.59c-4.73-1.53-9.59-2.63-14.52-3.27l3.15-4.23.82-1.1c4.22,1.36,8.54,2.36,12.93,3Z" fill="url(#j)" stroke-width="0"/><circle cx="219.97" cy="51.02" r="7.3" fill="url(#k)" stroke-width="0"/><circle cx="302.31" cy="89.05" r="7.3" fill="url(#l)" stroke-width="0"/><path d="M290.4,84.82c-14.08-1.94-38.25-8.19-60.06-28.13,9.48,2.52,23.77,7.36,40.82,16.54.03.01.05.03.08.04.23.13.45.25.69.37,1.3.71,2.68,1.48,4.2,2.34,4.79,2.73,9.59,5.7,14.28,8.84Z" fill="url(#m)" stroke-width="0"/><path d="M274.9,64.65l-.98,2.3c-2.48-1.33-4.96-2.61-7.42-3.81,2.76.65,5.57,1.15,8.4,1.51Z" fill="url(#n)" stroke-width="0"/><path d="M240.33,101.69c2.56.16,5.12.34,7.69.52l.02-.03c-2.57-.17-5.14-.34-7.71-.49ZM257.75,102.87h-.01c2.44.19,4.87.39,7.3.58v-.02c-2.42-.19-4.85-.38-7.29-.56Z" fill="#161616" stroke-width="0"/><path d="M265.16,90.16l-7.41,12.71h-.01c-.29-.02-.58-.04-.87-.06-2.39-.18-4.79-.35-7.19-.51-.55-.05-1.09-.08-1.64-.12l9.2-15.97,7.92,3.95Z" fill="#e8e8e8" stroke-width="0"/><polygon points="249.64 82.42 239.97 99.2 239.96 99.22 238.6 101.58 229.83 101.05 229.79 101.04 235.92 90.56 235.92 90.55 242.69 78.95 249.64 82.42" fill="none" stroke-width="0"/><path d="M312.87,87.35c-.94-5.82-6.44-9.79-12.26-8.85-1.68.27-3.26.93-4.6,1.92-5.62-3.84-11.34-7.42-17.02-10.66-.03,0-.06-.03-.08-.05l1.91-4.52.78-1.84,3.85-9.06,1.89-4.46,2.74-6.47,1.15-2.69.6-1.43.32-.72,1.18-2.8c.97.01,1.96-.06,2.95-.22,9.74-1.57,16.36-10.74,14.79-20.48S300.34-1.34,290.6.23c-9.74,1.56-16.37,10.73-14.8,20.47.33,2.02.98,3.9,1.9,5.6l-5.76,7.73-3.25,4.38-4.69,6.28h0s-2.34,3.15-2.34,3.15l-7.31,9.81c-.07-.02-.14-.05-.2-.08-8.13-3.36-16.06-6.01-23.57-7.89-.01-.13-.03-.24-.05-.36-.94-5.83-6.44-9.8-12.26-8.86-5.83.94-9.8,6.44-8.86,12.26.93,5.83,6.43,9.8,12.26,8.86,1.03-.16,2.02-.48,2.96-.93,4.63,4.36,9.35,8.13,14.07,11.38l-8.04,13.81-8.58,14.74,7.71.46,6.13-10.48h0s6.77-11.61,6.77-11.61l6.95,3.47-9.67,16.78v.02s-1.37,2.36-1.37,2.36h.22c.5.04,1.01.07,1.51.11,2.57.15,5.14.32,7.71.49l9.2-15.97,7.92,3.95-7.41,12.71c2.44.18,4.87.37,7.3.56l8.75-15.01c7.1,1.98,13.36,3.01,18.21,3.53,1.45,5.2,6.6,8.53,12,7.66,5.82-.94,9.8-6.43,8.86-12.26ZM220.69,54.85l-.1.02h-.03c-2.11.34-4.11-1.11-4.45-3.23-.09-.55-.05-1.13.1-1.67.14-.53.38-.99.73-1.41.6-.74,1.46-1.24,2.41-1.4,1.77-.28,3.5.67,4.21,2.34.12.29.21.59.26.9.34,2.07-1.07,4.07-3.13,4.45ZM281.3,30.97c1.81,1.67,3.94,2.96,6.28,3.77l-.87,2.03c-2.74-.77-5.52-1.41-8.33-1.88l2.92-3.92ZM273.86,40.95l.47-.63c3.26.97,6.56,1.74,9.91,2.29l-2.29,5.38c-3.74-1.13-7.56-1.99-11.42-2.58l3.33-4.46ZM265.81,51.74l.82-1.09c4.22,1.36,8.54,2.36,12.93,3l-2.38,5.59c-4.73-1.53-9.59-2.62-14.52-3.26l3.15-4.24ZM274.9,64.65l-.98,2.3c-2.48-1.33-4.96-2.61-7.41-3.81,2.76.65,5.56,1.15,8.39,1.51ZM230.35,56.69c9.48,2.52,23.76,7.36,40.82,16.54.02.01.04.03.07.04l-.03.07.72.3c1.3.71,2.68,1.48,4.19,2.34,4.79,2.73,9.59,5.7,14.28,8.84-14.08-1.94-38.25-8.19-60.05-28.13ZM306.2,89.34c-.05.59-.21,1.15-.52,1.66-.58,1.02-1.59,1.72-2.75,1.91-1.56.25-3.1-.45-3.94-1.79-.28-.45-.46-.94-.54-1.45-.29-1.82.71-3.57,2.43-4.25.25-.1.51-.17.81-.22,2.13-.34,4.13,1.11,4.47,3.23.05.3.07.62.04.91Z" fill="#161616" stroke-width="0"/><polygon points="249.64 82.42 239.97 99.2 239.96 99.22 238.6 101.58 229.83 101.05 229.79 101.04 235.92 90.56 235.92 90.55 242.69 78.95 249.64 82.42" fill="#e8e8e8" stroke-width="0"/><line x1="222.08" y1="100.58" x2="221.72" y2="101.2" fill="none" stroke-width="0"/><line x1="229.79" y1="101.04" x2="229.43" y2="101.67" fill="none" stroke-width="0"/><line x1="238.6" y1="101.58" x2="238.1" y2="102.45" fill="none" stroke-width="0"/><path d="M279.07,422.2l-.32-.59-20.07-34.45-4.69,5.41,18.47,31.67.83,20.81-25.89-44.89-5.85,6.74,23.57,40.86-15.28-12.6-13.19-22.62-4.72,5.45,12.67,21.76,36.84,29.65-2.37-47.2Z" fill="#161616" stroke-width="0"/><polygon points="265.12 447.76 249.84 435.16 236.65 412.54 241.55 406.9 265.12 447.76" fill="#e8e8e8" stroke-width="0"/><polygon points="273.29 445.05 247.4 400.16 253.99 392.57 272.46 424.24 273.29 445.05" fill="#e8e8e8" stroke-width="0"/><path d="M26.25,34.74l.87,2.03c2.75-.77,5.52-1.41,8.33-1.88l-2.92-3.92c-1.81,1.67-3.94,2.96-6.28,3.77Z" fill="url(#o)" stroke-width="0"/><path d="M29.59,42.61l2.29,5.38c3.74-1.13,7.56-1.99,11.42-2.58l-3.33-4.47-.47-.63c-3.26.97-6.57,1.74-9.91,2.29Z" fill="url(#p)" stroke-width="0"/><path d="M34.27,53.65l2.38,5.59c4.73-1.53,9.59-2.63,14.52-3.27l-3.15-4.23-.82-1.1c-4.22,1.36-8.54,2.36-12.93,3Z" fill="url(#q)" stroke-width="0"/><circle cx="93.86" cy="51.02" r="7.3" fill="url(#r)" stroke-width="0"/><circle cx="11.52" cy="89.05" r="7.3" fill="url(#s)" stroke-width="0"/><path d="M23.43,84.82c14.08-1.94,38.25-8.19,60.06-28.13-9.48,2.52-23.77,7.36-40.82,16.54-.03.01-.05.03-.08.04-.23.13-.45.25-.69.37-1.3.71-2.68,1.48-4.2,2.34-4.79,2.73-9.59,5.7-14.28,8.84Z" fill="url(#t)" stroke-width="0"/><path d="M38.93,64.65l.98,2.3c2.48-1.33,4.96-2.61,7.42-3.81-2.76.65-5.57,1.15-8.4,1.51Z" fill="url(#u)" stroke-width="0"/><path d="M65.79,102.18l.02.03c2.57-.18,5.13-.36,7.69-.52-2.57.15-5.14.32-7.71.49ZM48.78,103.43v.02c2.44-.19,4.87-.39,7.31-.57h0s-.01,0-.01,0c-2.44.18-4.87.37-7.3.56Z" fill="#161616" stroke-width="0"/><path d="M48.67,90.16l7.41,12.71h.01c.29-.02.58-.04.87-.06,2.39-.18,4.79-.35,7.19-.51.55-.05,1.09-.08,1.64-.12l-9.2-15.97-7.92,3.95Z" fill="#e8e8e8" stroke-width="0"/><polygon points="64.19 82.42 73.86 99.2 73.87 99.22 75.23 101.58 84 101.05 84.04 101.04 77.91 90.56 77.91 90.55 71.14 78.95 64.19 82.42" fill="none" stroke-width="0"/><path d="M9.82,99.61c5.4.87,10.55-2.46,12-7.66,4.85-.52,11.11-1.55,18.21-3.53l8.75,15.01c2.43-.19,4.86-.38,7.3-.56l-7.41-12.71,7.92-3.95,9.2,15.97c2.57-.17,5.14-.34,7.71-.49.5-.04,1.01-.07,1.51-.1h.22s-1.36-2.37-1.36-2.37v-.02s-9.68-16.78-9.68-16.78l6.95-3.47,6.77,11.6h0s6.13,10.49,6.13,10.49l7.71-.46-8.58-14.74-8.04-13.81c4.72-3.25,9.44-7.02,14.07-11.38.94.45,1.93.77,2.96.93,5.83.94,11.33-3.03,12.26-8.86.94-5.82-3.03-11.32-8.86-12.26-5.82-.94-11.32,3.03-12.26,8.86-.02.12-.04.23-.05.36-7.51,1.88-15.44,4.53-23.57,7.89-.06.03-.13.06-.2.08l-7.31-9.81-2.34-3.14h0s-4.69-6.29-4.69-6.29l-3.25-4.38-5.76-7.73c.92-1.7,1.57-3.58,1.9-5.6C39.6,10.96,32.97,1.79,23.23.23,13.49-1.34,4.33,5.28,2.76,15.02c-1.57,9.74,5.05,18.91,14.79,20.48.99.16,1.98.23,2.95.22l1.18,2.8.32.72.6,1.43,1.15,2.69,2.74,6.47,1.89,4.46,3.85,9.06.78,1.84,1.91,4.52s-.05.04-.08.05c-5.68,3.24-11.4,6.82-17.02,10.66-1.34-.99-2.92-1.65-4.6-1.92-5.82-.94-11.32,3.03-12.26,8.85-.94,5.83,3.04,11.32,8.86,12.26ZM90.01,50.4c.05-.31.14-.61.26-.9.71-1.67,2.44-2.62,4.21-2.34.95.16,1.81.66,2.41,1.4.35.42.59.88.73,1.41.15.54.19,1.12.1,1.67-.34,2.12-2.34,3.57-4.45,3.24h-.03s-.1-.03-.1-.03c-2.06-.38-3.47-2.38-3.13-4.45ZM35.45,34.89c-2.81.47-5.59,1.11-8.33,1.88l-.87-2.03c2.34-.81,4.47-2.1,6.28-3.77l2.92,3.92ZM43.3,45.41c-3.86.59-7.68,1.45-11.42,2.58l-2.29-5.38c3.35-.55,6.65-1.32,9.91-2.29l.47.63,3.33,4.46ZM51.17,55.98c-4.93.64-9.79,1.73-14.52,3.26l-2.38-5.59c4.39-.64,8.71-1.64,12.93-3l.82,1.09,3.15,4.24ZM47.32,63.14c-2.45,1.2-4.93,2.48-7.41,3.81l-.98-2.3c2.83-.36,5.63-.86,8.39-1.51ZM23.43,84.82c4.69-3.14,9.49-6.11,14.28-8.84,1.51-.86,2.89-1.63,4.19-2.34l.72-.3-.03-.07s.05-.03.07-.04c17.06-9.18,31.34-14.02,40.82-16.54-21.8,19.94-45.97,26.19-60.05,28.13ZM7.67,88.43c.34-2.12,2.34-3.57,4.47-3.23.3.05.56.12.81.22,1.72.68,2.72,2.43,2.43,4.25-.08.51-.26,1-.54,1.45-.84,1.34-2.38,2.04-3.94,1.79-1.16-.19-2.17-.89-2.75-1.91-.31-.51-.47-1.07-.52-1.66-.03-.29-.01-.61.04-.91Z" fill="#161616" stroke-width="0"/><polygon points="64.19 82.42 73.86 99.2 73.87 99.22 75.23 101.58 84 101.05 84.04 101.04 77.91 90.56 77.91 90.55 71.14 78.95 64.19 82.42" fill="#e8e8e8" stroke-width="0"/><line x1="92.11" y1="101.2" x2="91.75" y2="100.58" fill="none" stroke-width="0"/><line x1="84.4" y1="101.67" x2="84.04" y2="101.04" fill="none" stroke-width="0"/><line x1="75.73" y1="102.45" x2="75.23" y2="101.58" fill="none" stroke-width="0"/></svg>